<?xml version="1.0" encoding="utf-8"?>
<!-- Generator: Adobe Illustrator 16.0.3, SVG Export Plug-In . SVG Version: 6.00 Build 0)  -->
<!DOCTYPE svg PUBLIC "-//W3C//DTD SVG 1.1//EN" "http://www.w3.org/Graphics/SVG/1.1/DTD/svg11.dtd">
<svg version="1.1" id="Layer_1" xmlns="http://www.w3.org/2000/svg" xmlns:xlink="http://www.w3.org/1999/xlink" x="0px" y="0px"
	 width="212.074px" height="212.729px" viewBox="93.635 0 212.074 212.729" enable-background="new 93.635 0 212.074 212.729"
	 xml:space="preserve">
<path fill="#D9534F" d="M199.018,0.655L199.018,0.655C140.764,0.982,93.309,48.437,93.636,106.691v0.327
	c0,58.582,47.782,106.037,106.364,105.708c58.582-0.326,105.709-47.781,105.709-106.363C305.709,47.782,257.6,0.655,199.018,0.655z
	 M199.673,191.455c-46.8,0.326-84.764-37.637-85.091-84.437v-0.327c0-46.8,37.636-84.764,84.436-84.764
	c46.8-0.327,84.763,37.636,85.091,84.437C284.437,153.164,246.473,191.455,199.673,191.455z"/>
<path fill="#D9534F" d="M234.691,55.636l-36,35.346l-36.327-35.346l-14.728,14.4l36,35.345l-36,35.345l14.728,14.4l36-35.346
	l36,35.346l14.728-14.4l-36-35.345l36-35.345L234.691,55.636z"/>
</svg>
