<?xml version="1.0" encoding="utf-8"?>
<!-- Generator: Adobe Illustrator 16.0.3, SVG Export Plug-In . SVG Version: 6.00 Build 0)  -->
<!DOCTYPE svg PUBLIC "-//W3C//DTD SVG 1.1//EN" "http://www.w3.org/Graphics/SVG/1.1/DTD/svg11.dtd">
<svg version="1.1" id="Layer_1" xmlns="http://www.w3.org/2000/svg" xmlns:xlink="http://www.w3.org/1999/xlink" x="0px" y="0px"
	 width="400px" height="216px" viewBox="0 0 400 216" enable-background="new 0 0 400 216" xml:space="preserve">
<path id="i" fill="#42ACF3" d="M210.473,71.345c2.618-2.291,4.254-5.891,3.928-9.491c0-3.6-1.31-6.873-3.928-9.164
	c-2.945-2.618-6.545-3.927-10.473-3.6c-3.927,0-7.527,0.982-10.473,3.6c-2.618,2.291-4.254,5.563-3.927,9.164
	c0,3.6,1.309,6.873,3.927,9.164c2.945,2.618,6.545,3.927,10.473,3.927C203.928,75.273,207.527,73.963,210.473,71.345z
	 M212.437,88.037h-25.2v81.818h25.2V88.037L212.437,88.037z"/>
<path fill="#42ACF3" d="M200,0C140.437,0,92,48.437,92,108s48.437,108,108,108s108-48.437,108-108S259.563,0,200,0z M200,194.4
	c-47.782,0-86.4-38.619-86.4-86.4l0,0c0-47.782,38.618-86.4,86.4-86.4c47.781,0,86.4,38.618,86.4,86.4
	C286.4,155.781,247.781,194.4,200,194.4z"/>
</svg>
