<?xml version="1.0" encoding="utf-8"?>
<!-- Generator: Adobe Illustrator 16.0.3, SVG Export Plug-In . SVG Version: 6.00 Build 0)  -->
<!DOCTYPE svg PUBLIC "-//W3C//DTD SVG 1.1//EN" "http://www.w3.org/Graphics/SVG/1.1/DTD/svg11.dtd">
<svg version="1.1" id="Layer_1" xmlns="http://www.w3.org/2000/svg" xmlns:xlink="http://www.w3.org/1999/xlink" x="0px" y="0px"
	 width="212.073px" height="212.729px" viewBox="95.273 0 212.073 212.729" enable-background="new 95.273 0 212.073 212.729"
	 xml:space="preserve">
<path fill="#50AF51" d="M200.982,0.655C142.4,0.982,95.273,48.437,95.273,106.691v0.327C95.6,165.6,143.055,213.055,201.637,212.727
	c58.582-0.326,105.709-47.781,105.709-106.363C307.346,47.782,259.236,0.655,200.982,0.655z M201.637,191.455
	c-46.8,0.326-85.091-37.637-85.091-84.437v-0.327c-0.327-46.8,37.636-84.764,84.437-84.764l0,0
	c46.799-0.327,84.764,37.636,85.09,84.437C286.072,153.164,248.437,191.455,201.637,191.455z"/>
<path fill="#50AF51" d="M243.854,69.055l-56.291,55.309l-32.073-31.418l-15.054,14.728l47.127,46.146l71.346-70.037L243.854,69.055z
	"/>
</svg>
