<?xml version="1.0" encoding="utf-8"?>
<!-- Generator: Adobe Illustrator 16.0.3, SVG Export Plug-In . SVG Version: 6.00 Build 0)  -->
<!DOCTYPE svg PUBLIC "-//W3C//DTD SVG 1.1//EN" "http://www.w3.org/Graphics/SVG/1.1/DTD/svg11.dtd">
<svg version="1.1" id="Layer_1" xmlns="http://www.w3.org/2000/svg" xmlns:xlink="http://www.w3.org/1999/xlink" x="0px" y="0px"
	 width="216px" height="189.818px" viewBox="92 13.091 216 189.818" enable-background="new 92 13.091 216 189.818"
	 xml:space="preserve">
<path fill="#F0AD4E" d="M92,202.909L200,13.091l108,189.818H92z M123.746,184.909h152.508L200,48.109L123.746,184.909z"/>
<path id="_" fill="#F0AD4E" d="M188.545,90.327l1.964,55.636h14.4l2.291-55.636H188.545z M205.563,169.527
	c1.964-1.637,2.946-4.254,2.946-6.545c0-2.619-0.982-4.91-2.946-6.546c-1.964-1.637-4.581-2.618-7.527-2.618
	c-2.618,0-5.236,0.981-7.527,2.618c-1.964,1.636-2.946,3.927-2.946,6.546c0,2.617,0.982,4.908,2.946,6.545
	C194.764,173.127,200.982,173.127,205.563,169.527L205.563,169.527z"/>
</svg>
